<?xml version="1.0" standalone="no"?>
<!DOCTYPE svg PUBLIC "-//W3C//DTD SVG 20010904//EN"
 "http://www.w3.org/TR/2001/REC-SVG-20010904/DTD/svg10.dtd">
<svg version="1.0" xmlns="http://www.w3.org/2000/svg"
 width="759.000000pt" height="759.000000pt" viewBox="0 0 759.000000 759.000000"
 preserveAspectRatio="xMidYMid meet">
<metadata>
Created by potrace 1.14, written by Peter Selinger 2001-2017
</metadata>
<g transform="translate(0.000000,759.000000) scale(0.100000,-0.100000)"
fill="#000000" stroke="none">
<path d="M3482 7518 c-144 -9 -164 -17 -160 -60 4 -38 20 -46 33 -16 11 26 60
47 74 32 6 -5 16 -67 22 -138 l13 -128 -23 -19 c-20 -16 -21 -20 -7 -25 9 -3
31 -3 49 0 17 4 40 7 50 7 21 0 22 22 3 52 -20 30 -33 241 -17 261 15 18 43
10 72 -20 29 -31 39 -30 39 4 0 55 -12 59 -148 50z"/>
<path d="M3804 7508 c-15 -50 -89 -206 -121 -256 -18 -29 -31 -57 -28 -63 4
-5 24 -9 46 -9 l39 0 -5 38 c-8 50 3 61 63 69 42 5 56 2 72 -12 21 -19 28 -75
10 -75 -5 0 -10 -4 -10 -9 0 -5 27 -11 60 -13 49 -2 60 0 60 13 0 8 -23 60
-50 115 -28 54 -55 117 -61 138 -21 77 -60 110 -75 64z m32 -115 c7 -10 14
-28 14 -39 0 -17 -7 -23 -31 -26 -37 -6 -46 10 -29 52 14 34 27 38 46 13z"/>
<path d="M4114 7508 c19 -26 20 -77 5 -132 -19 -69 -22 -80 -26 -123 -4 -30
-10 -44 -24 -48 -19 -6 -26 -24 -11 -26 20 -4 102 -7 102 -4 0 1 -6 15 -14 30
-8 15 -12 37 -10 49 2 11 10 49 16 84 7 34 15 62 19 62 9 0 92 -127 122 -187
23 -45 54 -82 60 -72 13 19 27 84 27 122 0 58 18 146 36 172 20 28 17 42 -9
47 -41 8 -47 0 -47 -70 0 -66 -15 -114 -35 -115 -5 0 -35 44 -66 99 -57 99
-94 134 -142 134 -17 0 -17 -2 -3 -22z"/>
<path d="M3045 7464 c-43 -14 -90 -56 -112 -98 -19 -37 -13 -105 15 -169 17
-39 29 -51 66 -68 25 -10 68 -20 96 -20 42 -1 57 3 87 27 57 47 75 88 71 165
-3 55 -8 71 -32 100 -40 47 -58 58 -110 68 -30 5 -56 4 -81 -5z m99 -41 c4 -3
19 -29 32 -57 41 -88 26 -179 -34 -210 -25 -13 -32 -13 -61 1 -93 46 -118 214
-38 263 30 19 72 20 101 3z"/>
<path d="M4555 7430 c4 -18 -3 -58 -19 -110 -14 -44 -26 -98 -26 -119 0 -31
-5 -40 -25 -49 -34 -16 -31 -28 6 -36 73 -14 76 -12 84 57 8 76 42 203 62 234
17 25 18 24 -50 42 l-38 10 6 -29z"/>
<path d="M4785 7374 c-46 -24 -66 -45 -87 -91 -50 -113 -4 -210 120 -250 36
-11 58 -14 68 -8 28 18 20 30 -22 35 -47 7 -102 43 -114 75 -10 27 0 79 29
137 23 49 43 64 102 77 39 9 44 7 68 -18 14 -15 31 -35 37 -46 15 -27 44 -13
44 23 0 29 -20 41 -97 57 -18 4 -35 11 -38 16 -10 14 -77 10 -110 -7z"/>
<path d="M2588 7352 c-68 -20 -75 -26 -55 -46 22 -22 70 -181 75 -248 3 -35 9
-58 16 -58 25 0 129 31 165 49 39 20 62 48 75 89 6 19 0 30 -34 61 -35 32 -41
44 -40 72 3 57 1 64 -29 82 -36 21 -98 21 -173 -1z m112 -27 c34 -17 37 -33
15 -75 -11 -21 -23 -30 -40 -30 -44 0 -74 88 -37 109 23 14 28 13 62 -4z m74
-154 c26 -21 19 -55 -19 -91 -44 -43 -62 -35 -82 35 -14 45 -13 50 3 62 21 15
76 12 98 -6z"/>
<path d="M2261 7233 c-94 -28 -130 -106 -100 -218 23 -86 135 -151 214 -125
115 38 155 146 98 261 -26 50 -33 56 -88 76 -71 26 -57 25 -124 6z m90 -39
c64 -33 101 -202 55 -253 -64 -70 -186 41 -186 170 0 18 10 48 23 66 25 38 59
43 108 17z"/>
<path d="M5152 7229 c-89 -44 -121 -159 -70 -251 27 -50 72 -76 145 -84 61 -7
99 15 147 88 62 92 46 183 -42 239 -57 36 -118 39 -180 8z m167 -33 c49 -52
33 -151 -37 -228 -29 -33 -40 -38 -77 -38 -80 0 -106 73 -62 170 29 62 41 79
77 103 34 24 73 21 99 -7z"/>
<path d="M1986 7100 c-15 -5 -37 -17 -48 -27 -20 -18 -20 -18 3 -23 27 -7 107
-136 93 -150 -5 -5 -57 11 -119 37 -87 35 -118 44 -149 40 -41 -6 -71 -26 -49
-34 34 -12 67 -53 113 -139 44 -80 51 -101 46 -130 -4 -19 -4 -34 -1 -34 11 0
85 40 85 46 0 4 -22 30 -49 60 -27 29 -56 74 -64 99 -15 44 -15 45 5 45 12 0
49 -15 82 -34 34 -18 85 -39 114 -45 30 -6 62 -16 73 -21 13 -8 19 -7 19 0 0
14 -50 111 -95 185 -30 49 -36 67 -32 98 3 20 4 37 4 36 -1 0 -15 -5 -31 -9z"/>
<path d="M3687 7075 c-20 -19 -27 -35 -27 -64 0 -21 -3 -41 -6 -44 -4 -4 -22
7 -41 23 -36 32 -56 36 -97 20 -32 -12 -53 -45 -61 -95 -5 -32 -3 -45 14 -64
12 -14 29 -26 39 -28 9 -1 31 -5 47 -9 43 -8 79 23 94 80 l11 45 36 -24 c36
-24 97 -33 119 -17 6 4 16 18 22 32 l11 25 11 -28 c6 -16 11 -36 11 -46 0 -23
24 -44 78 -67 l44 -19 -23 -29 c-29 -37 -28 -77 4 -119 30 -40 22 -57 -28 -57
-57 0 -87 -53 -73 -127 10 -50 11 -51 55 -62 38 -10 51 -9 83 6 62 29 78 89
39 152 -23 38 -15 51 32 51 42 0 69 38 69 98 0 58 -21 86 -71 97 -38 9 -44 21
-25 50 33 51 8 127 -49 151 -47 19 -69 18 -90 -6 -27 -30 -40 -25 -54 19 -23
80 -116 109 -174 56z"/>
<path d="M5756 6956 c4 -19 -6 -42 -43 -97 -26 -39 -58 -88 -70 -108 -12 -20
-34 -41 -48 -47 -24 -10 -25 -11 -8 -26 10 -8 49 -34 87 -57 60 -36 75 -41
128 -41 85 0 118 19 151 85 15 31 27 69 27 86 0 65 -60 141 -158 198 -64 37
-74 38 -66 7z m118 -97 c50 -60 46 -126 -12 -191 -36 -40 -37 -40 -96 -35 -41
4 -64 11 -73 23 -18 24 -17 26 18 70 17 22 35 48 39 59 14 36 70 105 84 105 8
0 26 -14 40 -31z"/>
<path d="M1571 6850 c-28 -22 -54 -40 -57 -40 -15 0 -114 -83 -114 -95 0 -15
38 -65 50 -65 5 0 7 13 4 29 -5 22 0 35 17 52 l22 22 51 -54 c60 -64 126 -160
126 -183 0 -22 12 -20 46 6 16 12 31 23 33 25 2 1 -16 26 -41 55 -54 65 -138
184 -138 198 0 5 13 16 30 25 27 14 32 14 54 0 37 -24 44 1 10 36 -15 16 -31
29 -35 29 -4 0 -30 -18 -58 -40z"/>
<path d="M3689 6829 c-47 -28 -60 -51 -66 -119 -5 -56 -5 -58 36 -100 31 -32
41 -51 41 -74 0 -45 18 -247 25 -273 5 -23 33 -37 57 -28 15 6 38 114 43 205
6 100 17 138 46 166 26 25 29 35 29 88 0 57 -3 64 -41 109 -38 44 -44 47 -87
47 -29 0 -61 -8 -83 -21z"/>
<path d="M3423 6795 c-32 -13 -53 -58 -53 -111 0 -18 40 -74 54 -74 3 0 16 -4
30 -10 l25 -9 -15 -46 c-20 -57 -12 -89 30 -131 37 -37 65 -38 121 -5 76 44
30 205 -54 188 -40 -8 -43 -1 -15 40 43 64 25 131 -42 159 -40 17 -41 17 -81
-1z"/>
<path d="M6109 6698 c-25 -48 -168 -208 -186 -208 -24 0 -13 -21 33 -63 26
-23 65 -59 88 -79 47 -44 63 -46 100 -17 32 25 25 42 -15 34 -40 -9 -129 53
-129 90 0 14 65 75 79 75 22 0 56 -36 70 -72 14 -37 23 -35 54 12 24 38 25 40
6 40 -29 0 -77 27 -89 51 -14 25 4 57 44 78 24 14 28 13 56 -14 16 -16 33 -38
36 -49 11 -36 25 -48 40 -35 28 23 12 48 -76 123 l-89 77 -22 -43z"/>
<path d="M4374 6675 c-35 -17 -90 -67 -184 -166 -199 -210 -259 -269 -269
-269 -6 0 -29 -25 -53 -55 -24 -30 -50 -58 -59 -60 -9 -3 -19 -15 -22 -25 -3
-11 -10 -20 -17 -20 -6 0 -144 133 -307 296 l-296 297 -63 5 c-73 5 -102 -8
-134 -61 -51 -83 -20 -138 203 -365 98 -101 177 -185 175 -187 -2 -2 -30 -7
-63 -11 -32 -3 -69 -10 -82 -15 -13 -5 -23 -6 -23 -4 0 7 -159 -73 -192 -97
-15 -10 -50 -22 -78 -25 -140 -16 -195 -153 -98 -245 21 -21 50 -41 64 -44 39
-10 97 12 155 59 60 49 52 44 149 90 63 30 89 37 160 40 106 6 173 -4 243 -37
30 -14 59 -26 65 -26 5 0 29 -16 52 -35 51 -43 75 -44 115 -5 17 17 40 32 51
35 10 2 48 16 84 31 103 43 326 52 364 14 6 -6 19 -10 30 -10 36 -1 99 -35
169 -94 58 -47 75 -56 108 -56 62 0 105 23 128 69 25 48 27 91 5 137 -23 47
-57 72 -112 80 -51 7 -81 20 -182 76 -64 37 -95 45 -197 55 -82 8 -83 20 -6
104 36 41 120 128 185 194 l118 120 6 62 c5 49 3 68 -9 87 -19 28 -99 86 -119
86 -8 0 -36 -11 -64 -25z"/>
<path d="M1279 6633 c-8 -9 -48 -47 -91 -84 l-76 -67 28 -12 c37 -15 200 -192
200 -217 0 -23 36 -14 66 18 16 17 53 49 82 71 56 43 62 60 37 108 -21 41 -35
37 -35 -8 0 -31 -8 -47 -38 -80 -22 -23 -46 -42 -54 -42 -19 0 -65 45 -74 73
-9 27 45 75 90 79 l31 3 -43 42 -43 43 -5 -30 c-7 -35 -49 -80 -74 -80 -10 0
-30 16 -45 36 l-27 36 28 29 c15 15 43 34 63 40 52 17 54 19 35 40 -21 23 -37
24 -55 2z"/>
<path d="M6480 6303 c-39 -14 -93 -60 -111 -94 -56 -111 13 -250 125 -252 77
-1 113 12 159 57 33 32 47 54 52 83 12 77 -28 168 -88 196 -33 16 -105 21
-137 10z m130 -59 c84 -34 56 -141 -52 -203 -60 -35 -86 -38 -128 -16 -26 14
-30 21 -30 58 0 49 18 80 80 136 50 45 71 49 130 25z"/>
<path d="M872 6161 c-32 -44 -32 -63 1 -67 28 -3 137 -77 137 -93 0 -11 -56
-18 -165 -20 -87 -1 -91 -3 -118 -32 -29 -31 -28 -54 2 -44 11 3 33 -7 57 -25
21 -16 62 -45 90 -64 56 -37 84 -70 84 -98 0 -23 6 -23 29 0 49 47 64 105 22
83 -20 -11 -54 3 -101 41 -15 13 -36 28 -46 34 -15 9 -17 16 -8 30 8 15 27 18
113 20 115 3 181 12 181 24 0 5 -15 19 -32 31 -18 12 -73 52 -121 88 -72 54
-88 70 -84 88 6 33 -18 35 -41 4z"/>
<path d="M6765 5910 c-55 -10 -120 -23 -144 -29 -26 -7 -63 -10 -88 -6 -49 7
-51 3 -23 -42 23 -38 40 -42 58 -13 19 31 56 25 91 -15 17 -20 31 -45 31 -56
0 -29 -29 -69 -51 -69 -23 0 -24 -13 -4 -30 8 -7 15 -18 15 -25 0 -12 31 -45
43 -45 4 0 7 7 7 15 0 23 36 90 91 172 27 40 49 76 49 81 0 5 9 17 20 27 20
18 26 41 13 48 -5 2 -53 -4 -108 -13z m-5 -56 c0 -27 -20 -54 -41 -54 -30 0
-36 30 -10 52 28 22 51 23 51 2z"/>
<path d="M5734 5909 c-17 -5 -38 -17 -47 -27 -18 -19 -57 -132 -77 -222 -7
-30 -18 -71 -26 -90 -8 -19 -21 -71 -30 -115 -15 -77 -35 -125 -53 -125 -5 0
-27 24 -50 54 -43 55 -117 118 -211 179 -30 19 -73 53 -94 75 -47 49 -85 66
-128 58 -109 -21 -159 -125 -105 -221 19 -34 35 -45 107 -76 146 -63 156 -70
213 -128 61 -63 94 -116 126 -209 24 -71 41 -174 31 -194 -3 -7 -6 -40 -6 -73
1 -57 2 -60 26 -61 41 -1 222 -116 242 -153 9 -18 23 -40 32 -50 9 -10 16 -22
16 -28 0 -5 9 -18 19 -27 10 -10 21 -32 24 -49 3 -18 12 -50 20 -73 16 -42 20
-132 10 -276 l-5 -77 39 -41 c32 -34 46 -42 88 -46 42 -5 56 -2 85 18 62 42
88 130 55 188 -8 14 -14 52 -15 88 0 79 -34 250 -61 316 -17 41 -18 51 -7 62
11 11 29 9 113 -17 55 -17 134 -37 175 -46 125 -25 144 -30 173 -42 41 -16 75
-14 122 9 51 25 65 53 65 131 0 100 -19 121 -145 154 -33 9 -130 34 -215 57
-85 22 -184 48 -220 58 -36 9 -75 22 -87 28 -12 7 -41 12 -65 12 -24 0 -62 9
-85 20 -49 22 -51 31 -28 120 8 30 19 75 26 100 6 25 18 65 26 90 8 25 28 104
44 175 15 72 37 157 48 191 44 136 37 209 -25 264 -37 32 -77 38 -140 19z"/>
<path d="M1700 5883 c-88 -33 -106 -110 -61 -263 5 -19 19 -69 31 -110 11 -41
28 -100 36 -130 27 -94 32 -114 39 -155 4 -22 20 -71 37 -109 16 -37 28 -76
25 -85 -2 -10 2 -26 9 -36 8 -10 14 -24 14 -30 0 -16 -68 -51 -115 -59 -22 -4
-60 -14 -85 -21 -25 -8 -74 -21 -110 -29 -36 -9 -144 -38 -240 -65 -96 -28
-183 -50 -193 -51 -28 0 -94 -37 -111 -62 -11 -15 -16 -44 -16 -85 0 -58 3
-66 37 -104 l37 -40 70 4 c61 3 245 46 438 103 31 9 63 14 72 11 14 -6 14 -11
0 -54 -32 -103 -54 -222 -54 -299 0 -44 -5 -85 -11 -91 -17 -17 -23 -128 -9
-162 16 -40 71 -65 144 -66 56 0 60 2 90 38 35 43 35 49 21 248 -8 124 5 184
60 284 61 110 219 246 298 257 21 3 22 6 22 148 l0 145 46 95 c64 130 128 195
235 239 157 66 194 99 194 181 0 64 -25 106 -77 131 -69 34 -117 23 -173 -39
-25 -26 -86 -77 -137 -111 -93 -63 -134 -103 -187 -182 l-29 -43 -18 23 c-11
13 -19 39 -19 58 0 19 -20 95 -45 169 -25 73 -45 142 -45 154 0 37 -50 144
-81 173 -24 22 -38 27 -77 26 -26 0 -54 -3 -62 -6z"/>
<path d="M627 5810 c-26 -43 -22 -84 9 -99 58 -26 224 -142 224 -156 0 -26 16
-17 44 25 26 39 36 87 16 75 -14 -9 -198 81 -232 113 -16 14 -28 34 -28 43 0
30 -15 29 -33 -1z"/>
<path d="M3380 5705 c-63 -18 -120 -44 -120 -53 0 -5 -18 -19 -40 -31 -36 -20
-79 -67 -69 -75 2 -1 31 -21 64 -43 34 -23 77 -58 96 -80 39 -43 110 -211 133
-316 18 -78 61 -229 80 -282 8 -22 15 -48 16 -58 0 -9 13 -55 29 -101 16 -46
34 -110 41 -142 6 -33 14 -66 17 -74 4 -8 12 -37 19 -65 6 -27 19 -75 28 -105
9 -30 24 -84 34 -119 21 -74 45 -96 91 -86 27 6 32 13 47 63 9 31 23 77 31
102 7 25 20 73 28 107 7 34 21 75 29 92 9 16 16 40 16 53 0 13 12 64 26 113
14 50 31 117 39 150 7 33 21 87 30 120 9 33 20 76 24 95 5 19 13 47 19 61 6
14 13 41 17 60 18 95 24 119 43 176 37 116 108 206 194 248 23 11 43 25 45 31
6 18 -68 83 -130 114 -33 16 -66 35 -73 41 -18 14 -134 19 -212 8 -56 -8 -108
-30 -184 -77 -26 -16 -28 -16 -65 14 -21 17 -47 35 -58 41 -50 26 -223 37
-285 18z"/>
<path d="M6269 5641 c-41 -41 -41 -101 0 -141 24 -24 35 -28 72 -26 24 2 52 7
62 11 15 6 17 1 17 -48 0 -50 3 -57 35 -86 20 -17 40 -31 45 -31 19 0 10 -17
-14 -28 -32 -14 -48 -79 -29 -116 19 -35 10 -46 -33 -39 -29 5 -40 1 -64 -22
-16 -16 -35 -44 -41 -62 -12 -38 -30 -39 -39 -2 -15 64 -142 63 -175 -2 -21
-40 -19 -86 7 -121 21 -30 22 -30 86 -25 69 7 86 19 97 70 8 34 16 34 36 -1
19 -34 84 -57 122 -43 52 20 82 102 53 146 -9 13 -16 28 -16 32 0 4 25 8 55 9
69 0 92 20 101 86 7 50 -2 65 -72 112 -20 14 -24 21 -13 24 35 11 59 46 59 87
0 50 -20 81 -67 100 -46 20 -55 19 -83 -5 -39 -34 -49 -25 -30 25 21 55 -40
125 -110 125 -22 0 -41 -9 -61 -29z"/>
<path d="M6965 5633 c17 -42 17 -55 -2 -76 -11 -12 -25 -31 -31 -43 -10 -19
-18 -21 -64 -16 -29 2 -65 11 -79 18 -15 7 -29 10 -33 7 -3 -4 -6 -31 -6 -61
0 -48 2 -53 18 -46 30 14 122 17 122 4 0 -20 -29 -68 -54 -88 -19 -14 -22 -22
-13 -31 6 -6 16 -11 23 -11 6 0 17 -7 24 -15 20 -24 50 -19 50 8 0 12 10 45
22 73 23 52 23 52 78 58 50 5 57 3 73 -19 25 -34 37 -23 37 33 0 68 -7 74 -68
66 -29 -3 -52 -4 -52 -1 0 4 14 22 31 41 37 43 33 64 -20 94 -47 27 -66 28
-56 5z"/>
<path d="M6070 5627 c-37 -18 -51 -54 -47 -114 l4 -53 -38 0 c-52 0 -91 -35
-107 -96 l-13 -49 35 -32 c52 -48 77 -51 129 -13 38 27 45 38 51 77 4 33 2 49
-9 60 -23 22 -9 34 33 28 27 -4 46 0 70 14 30 20 32 24 32 78 -1 61 -10 82
-47 101 -28 15 -62 15 -93 -1z"/>
<path d="M1120 5601 c-27 -26 -28 -31 -19 -66 12 -42 -1 -69 -23 -47 -14 14
-67 16 -102 2 -29 -11 -42 -31 -50 -81 -4 -30 0 -44 24 -77 l29 -40 -40 -31
c-34 -28 -39 -37 -39 -72 0 -22 7 -53 15 -69 18 -35 74 -57 104 -41 27 15 41
14 41 -4 0 -8 -4 -15 -9 -15 -5 0 -12 -18 -16 -41 -8 -47 16 -105 48 -115 50
-16 137 3 137 30 0 30 25 21 70 -26 55 -57 80 -60 138 -18 38 27 42 34 42 74
0 38 -5 48 -35 75 -50 44 -106 43 -152 -1 l-32 -31 -10 25 c-15 41 -59 69
-102 66 -49 -2 -55 4 -42 45 12 40 2 71 -35 110 l-27 29 24 16 c65 46 74 60
66 109 l-7 46 29 -7 c15 -4 40 -10 56 -13 61 -12 118 67 97 133 -23 68 -127
88 -180 35z"/>
<path d="M1395 5603 c-45 -11 -65 -43 -65 -103 0 -74 20 -94 92 -95 l51 0 -2
-67 c-2 -61 0 -70 23 -93 31 -31 75 -33 126 -4 49 28 58 71 28 134 -22 46 -39
55 -100 55 l-37 0 6 55 c7 71 -8 102 -56 115 -20 5 -38 9 -41 9 -3 -1 -14 -3
-25 -6z"/>
<path d="M498 5547 c-39 -30 -90 -108 -111 -172 -4 -11 -10 -26 -13 -34 -5
-11 -1 -12 21 -7 37 9 270 -102 280 -134 7 -21 7 -21 19 -3 7 10 28 54 47 98
31 72 34 85 27 134 -12 77 -35 112 -89 133 -73 28 -130 24 -181 -15z m152 -57
c53 -27 70 -55 70 -115 0 -79 -36 -97 -100 -50 -19 14 -40 25 -47 25 -25 0
-123 54 -123 69 0 8 18 31 40 53 33 31 48 38 81 38 22 0 57 -9 79 -20z"/>
<path d="M6173 5391 c-22 -21 -43 -51 -47 -67 -9 -33 -64 -87 -159 -154 -37
-27 -77 -60 -88 -74 -55 -70 23 -82 141 -22 125 64 173 79 219 66 60 -16 118
13 161 82 14 23 15 36 6 82 -17 84 -67 126 -149 126 -38 0 -50 -6 -84 -39z"/>
<path d="M1210 5379 c-63 -34 -87 -116 -58 -196 9 -26 25 -40 66 -60 50 -24
58 -26 98 -15 30 8 50 9 62 2 9 -5 58 -26 107 -45 189 -75 205 -78 205 -31 0
27 -24 60 -56 79 -20 11 -45 28 -139 94 -25 18 -52 51 -73 91 -51 95 -129 125
-212 81z"/>
<path d="M4956 5215 c-3 -10 -4 -39 0 -64 7 -55 -13 -126 -51 -175 -14 -18
-25 -40 -25 -48 0 -9 -52 -67 -116 -130 -63 -62 -151 -153 -196 -203 -82 -92
-115 -127 -391 -412 -155 -161 -157 -163 -157 -207 0 -39 4 -47 27 -59 24 -13
33 -12 77 3 28 9 74 20 103 24 28 3 68 13 89 22 20 8 68 24 108 34 39 11 105
29 146 41 128 37 284 80 310 85 14 3 39 9 55 14 92 28 173 50 195 54 14 3 47
12 74 21 29 9 86 15 139 15 73 0 94 -4 117 -20 15 -11 49 -29 76 -40 69 -30
78 -17 82 108 6 153 -28 263 -101 330 -13 13 -60 46 -103 75 l-79 52 -1 70
c-1 169 -89 317 -229 385 -79 39 -140 49 -149 25z"/>
<path d="M2529 5205 c-192 -67 -285 -192 -292 -395 -4 -102 -5 -104 -85 -145
-74 -38 -153 -132 -181 -214 -38 -116 -20 -321 29 -321 10 0 23 6 27 14 4 8
43 28 85 45 85 35 151 40 220 17 24 -8 79 -22 123 -30 44 -9 134 -32 200 -51
66 -18 194 -52 285 -75 91 -23 226 -58 300 -80 165 -46 261 -70 289 -70 25 0
43 39 36 77 -6 33 0 28 -430 462 -401 405 -373 376 -436 451 -70 83 -99 158
-99 255 0 72 -11 80 -71 60z"/>
<path d="M6893 5180 c4 -18 12 -39 19 -47 9 -11 14 -10 30 7 10 11 24 20 31
20 27 0 63 -42 77 -88 7 -26 4 -35 -15 -56 -14 -15 -35 -26 -50 -26 -26 0 -32
-9 -15 -26 6 -6 12 -21 15 -33 10 -51 25 -53 60 -7 34 44 185 194 211 209 8 4
14 17 14 27 0 15 -7 20 -27 21 -163 7 -313 18 -332 24 -23 8 -24 7 -18 -25z
m250 -36 c9 -9 -31 -64 -46 -64 -16 0 -37 34 -29 47 13 19 62 30 75 17z"/>
<path d="M328 5180 c-24 -15 -52 -65 -82 -149 l-26 -73 24 6 c15 4 44 -3 77
-17 30 -13 81 -29 113 -35 33 -7 74 -23 93 -38 30 -23 34 -24 39 -7 3 10 13
35 21 56 17 39 12 57 -9 40 -7 -6 -35 -8 -63 -4 -41 5 -50 10 -50 25 0 15 15
24 65 41 87 28 109 41 120 71 20 52 13 55 -52 25 -35 -16 -77 -31 -94 -34 -30
-6 -33 -4 -53 42 -11 27 -28 51 -37 55 -23 9 -67 7 -86 -4z m52 -70 c31 -17
42 -45 28 -75 -8 -19 -16 -24 -32 -19 -82 22 -96 46 -50 83 31 24 30 24 54 11z"/>
<path d="M7208 4907 c-46 -7 -65 -17 -102 -51 -51 -46 -55 -65 -36 -167 12
-61 47 -106 76 -95 16 6 15 8 -4 29 -11 12 -25 42 -31 66 -13 58 4 92 62 124
63 37 100 40 151 15 38 -18 45 -26 54 -66 9 -41 8 -49 -14 -84 l-24 -38 37 0
c59 0 69 11 55 58 -7 22 -12 55 -12 75 0 20 -5 39 -11 42 -5 4 -14 18 -19 30
-20 52 -92 76 -182 62z"/>
<path d="M474 4775 c-17 -8 -78 -21 -135 -30 -176 -27 -184 -29 -187 -48 -2
-9 2 -17 8 -17 6 0 41 -26 78 -57 37 -32 90 -73 118 -92 28 -18 55 -43 60 -54
16 -35 32 -31 44 13 13 48 7 64 -20 50 -26 -14 -59 16 -62 56 -4 53 20 93 59
100 21 4 39 2 46 -5 17 -17 27 -13 27 12 0 13 3 27 7 31 4 4 9 18 10 31 4 28
-7 30 -53 10z m-126 -123 c4 -28 -21 -39 -54 -24 -30 14 -31 39 -1 45 38 8 52
3 55 -21z"/>
<path d="M7110 4496 c0 -51 11 -63 41 -43 30 21 54 10 74 -32 24 -54 17 -91
-23 -114 -28 -16 -35 -17 -49 -6 -15 13 -15 9 -9 -36 13 -90 13 -91 52 -51 28
29 152 110 250 164 33 18 31 48 -3 55 -16 3 -46 11 -68 17 -22 6 -78 21 -125
31 -46 11 -91 26 -100 33 -36 30 -40 28 -40 -18z m230 -76 c13 -9 11 -14 -13
-35 -30 -27 -52 -24 -60 6 -8 31 40 50 73 29z"/>
<path d="M78 4373 c-2 -32 -1 -62 4 -67 5 -6 8 -3 8 7 0 16 10 21 35 18 99 -9
229 -31 237 -39 7 -7 6 -16 -1 -30 -8 -14 -7 -24 4 -38 14 -18 16 -18 40 9 31
35 32 68 2 102 -19 23 -38 29 -147 47 -69 11 -132 27 -141 34 -28 25 -37 15
-41 -43z"/>
<path d="M7273 3994 c-18 -9 -49 -34 -68 -55 -33 -37 -35 -43 -35 -113 0 -67
3 -78 33 -122 38 -58 85 -84 150 -84 180 0 278 202 158 327 -57 60 -168 81
-238 47z"/>
<path d="M119 3977 c-65 -35 -105 -103 -102 -177 2 -74 36 -148 81 -173 18
-11 61 -22 95 -24 75 -6 125 14 175 72 38 43 46 69 40 140 -6 73 -42 125 -109
159 -66 33 -121 34 -180 3z"/>
<path d="M5809 3701 c-45 -44 -47 -60 -29 -242 11 -109 7 -136 -35 -249 -29
-78 -149 -218 -188 -220 -4 0 -18 -11 -30 -25 -12 -13 -44 -32 -71 -42 -59
-22 -67 -39 -51 -118 13 -62 11 -87 -22 -225 -12 -49 -28 -82 -69 -135 -100
-132 -132 -157 -260 -204 -87 -32 -117 -66 -122 -139 -4 -52 -1 -61 24 -91 48
-57 125 -77 183 -47 15 8 40 33 55 54 19 27 44 47 79 62 59 26 205 152 213
186 6 25 51 71 60 61 11 -11 52 -137 59 -180 4 -23 18 -71 32 -107 24 -61 47
-140 60 -202 7 -37 73 -95 118 -104 43 -8 83 7 120 46 49 51 49 90 -4 285 -12
44 -23 87 -25 95 -2 8 -10 32 -20 52 -9 21 -16 43 -16 50 0 21 -50 222 -61
240 -5 10 -9 27 -9 38 0 12 -9 41 -21 66 -31 69 -24 83 46 105 33 10 69 19 81
19 11 0 24 4 30 9 15 14 275 91 306 91 9 0 19 4 22 9 3 5 18 11 33 14 240 43
314 82 327 173 4 32 1 56 -10 79 -42 88 -107 103 -259 57 -168 -50 -253 -72
-283 -72 -15 0 -33 -5 -39 -11 -6 -6 -26 -9 -44 -7 -40 4 -40 5 -5 103 22 60
26 88 26 190 0 103 3 126 21 160 16 30 20 49 15 83 -9 69 -37 105 -91 120 -78
21 -103 16 -146 -27z"/>
<path d="M1613 3706 c-61 -28 -89 -99 -67 -173 8 -26 17 -82 20 -123 8 -122
34 -252 60 -303 23 -47 30 -77 18 -77 -4 0 -27 7 -53 15 -25 8 -98 26 -161 40
-63 13 -148 34 -189 45 -92 25 -155 25 -201 2 -44 -21 -60 -53 -60 -118 0
-110 46 -138 335 -204 121 -28 418 -108 480 -130 59 -20 63 -31 40 -114 -36
-135 -60 -226 -74 -286 -5 -19 -20 -75 -34 -125 -75 -266 -81 -349 -29 -397
31 -29 81 -48 125 -48 49 0 100 61 121 145 10 39 22 79 26 90 5 11 11 31 14
45 24 111 39 171 51 205 7 22 16 57 20 77 8 49 24 57 49 24 64 -82 137 -151
214 -201 48 -32 103 -75 122 -97 48 -53 99 -70 159 -52 73 22 86 42 85 129 0
69 -3 78 -29 105 -16 16 -34 30 -39 30 -6 0 -56 22 -111 49 -117 58 -191 125
-237 215 -52 103 -60 135 -65 271 -3 72 -9 135 -14 140 -4 6 -37 21 -73 34
-41 14 -71 32 -81 47 -9 14 -26 29 -39 34 -26 9 -111 118 -151 193 -37 66 -53
199 -36 287 7 36 12 77 12 92 0 37 -36 104 -66 124 -35 23 -103 27 -142 10z"/>
<path d="M3410 3699 c-30 -12 -86 -29 -125 -39 -38 -10 -90 -25 -115 -34 -25
-8 -76 -22 -115 -30 -38 -9 -97 -25 -130 -35 -33 -11 -116 -33 -185 -50 -69
-17 -168 -43 -220 -57 -194 -52 -246 -64 -280 -64 -50 0 -126 25 -180 60 -70
45 -75 43 -91 -43 -19 -103 -14 -194 16 -241 7 -12 15 -33 19 -47 3 -14 22
-43 41 -65 20 -21 40 -42 43 -47 13 -14 115 -79 127 -81 27 -4 44 -27 36 -49
-8 -24 -8 -34 2 -57 3 -8 8 -40 10 -71 13 -147 150 -303 297 -339 80 -20 74
-27 80 95 4 97 8 115 33 158 30 51 124 155 277 307 53 52 125 127 160 165 35
39 147 157 249 263 102 107 194 206 203 220 23 35 23 57 -2 82 -26 26 -78 26
-150 -1z"/>
<path d="M4020 3684 c-26 -67 -38 -52 444 -529 250 -247 462 -465 471 -484 35
-70 56 -153 53 -205 l-3 -51 40 2 c104 4 223 100 287 231 29 60 33 78 36 170
l4 103 49 25 c100 50 156 116 202 239 29 75 35 172 17 249 -16 69 -25 71 -118
25 -100 -50 -189 -62 -268 -35 -26 9 -60 16 -75 16 -15 0 -31 5 -34 10 -3 6
-16 10 -28 10 -27 0 -616 144 -720 176 -43 13 -90 24 -104 24 -14 0 -39 6 -56
14 -44 18 -121 36 -157 36 -24 0 -33 -6 -40 -26z"/>
<path d="M3746 3538 c-14 -23 -124 -441 -145 -553 -7 -33 -23 -91 -36 -130
-45 -136 -84 -279 -100 -369 -3 -21 -10 -46 -15 -55 -5 -9 -16 -43 -25 -76
-25 -94 -71 -154 -153 -203 -39 -23 -74 -47 -77 -52 -10 -16 43 -77 100 -114
69 -46 121 -60 232 -60 90 -1 92 0 187 48 l96 50 28 -21 c91 -67 290 -105 360
-69 17 9 38 16 47 16 24 0 152 85 165 110 17 32 8 45 -67 88 -61 36 -73 48
-111 114 -23 41 -42 79 -42 86 0 7 -9 29 -20 49 -11 21 -20 50 -20 65 0 15
-15 74 -34 130 -19 57 -44 139 -55 183 -12 44 -35 127 -51 185 -17 58 -32 117
-35 132 -2 15 -8 35 -13 45 -5 10 -12 38 -16 62 -4 24 -22 92 -41 150 -18 58
-36 123 -40 143 -10 64 -88 94 -119 46z"/>
<path d="M7229 3417 c-43 -29 -79 -91 -79 -138 0 -19 7 -56 16 -81 13 -41 22
-50 71 -74 99 -48 193 -33 246 39 32 42 35 140 5 192 -37 62 -79 85 -158 85
-53 0 -74 -5 -101 -23z m149 -58 c82 -20 129 -86 96 -136 -8 -13 -32 -32 -55
-43 -35 -18 -47 -20 -94 -11 -124 23 -169 76 -129 152 24 48 86 61 182 38z"/>
<path d="M136 3385 c-82 -28 -124 -103 -111 -196 7 -46 37 -101 49 -88 3 3 1
21 -4 40 -15 53 -12 94 10 122 50 64 198 76 245 20 48 -55 40 -106 -23 -160
-35 -29 -23 -38 36 -27 l47 9 -3 45 c-11 156 -15 168 -75 214 -41 32 -114 40
-171 21z"/>
<path d="M390 3045 c0 -18 -24 -31 -75 -40 -22 -4 -70 -16 -106 -26 -51 -15
-72 -18 -93 -9 -15 5 -30 10 -33 10 -13 0 44 -262 59 -271 11 -7 70 -1 78 8 3
3 -1 8 -7 10 -17 6 -69 84 -77 116 -5 23 -2 30 26 47 21 13 46 19 68 18 34 -3
35 -5 38 -47 2 -24 -2 -49 -7 -54 -20 -20 -11 -27 38 -27 64 0 85 22 43 44
-24 12 -32 25 -37 57 -9 49 1 59 62 59 44 0 47 -3 58 -68 3 -21 0 -41 -10 -55
-22 -31 -19 -37 20 -37 46 0 51 14 26 86 -11 33 -23 84 -27 114 -7 54 -18 80
-35 80 -5 0 -9 -7 -9 -15z"/>
<path d="M7114 3023 c-3 -10 -14 -37 -25 -61 -12 -28 -19 -65 -19 -106 0 -59
2 -66 40 -108 40 -47 64 -57 148 -64 99 -8 172 79 172 206 0 25 -4 50 -8 56
-9 14 -67 44 -85 44 -8 0 -22 9 -32 20 -23 25 -32 16 -37 -35 -3 -38 -2 -40
27 -43 52 -4 103 -22 109 -37 3 -9 -5 -39 -18 -68 -28 -64 -61 -82 -137 -75
-63 6 -118 48 -138 104 -18 52 -1 90 53 118 49 26 54 39 21 54 -37 17 -65 15
-71 -5z"/>
<path d="M6150 2742 c-25 -26 -30 -38 -30 -81 0 -43 4 -53 25 -67 14 -9 45
-19 68 -21 60 -7 97 24 104 88 7 63 -23 99 -89 106 -42 5 -50 3 -78 -25z"/>
<path d="M6364 2705 c-31 -41 -33 -69 -8 -117 20 -38 49 -51 96 -44 l39 6 -7
-50 c-8 -59 7 -102 42 -120 32 -17 30 -25 -6 -40 -51 -21 -72 -56 -64 -108 7
-44 6 -45 -17 -37 -74 25 -144 -2 -155 -60 -18 -100 54 -159 142 -116 50 24
63 48 56 103 l-4 37 33 -9 c90 -26 139 6 139 88 0 52 -28 102 -57 102 -28 0
-7 24 32 34 43 12 52 30 54 102 1 36 -3 45 -35 69 -31 24 -41 26 -81 20 -45
-6 -46 -6 -38 17 31 96 4 147 -82 155 -49 5 -51 4 -79 -32z"/>
<path d="M467 2695 c-20 -25 -41 -38 -84 -50 -32 -8 -83 -24 -113 -35 -35 -13
-58 -16 -64 -10 -29 29 -30 -24 -1 -79 l13 -25 15 30 c15 29 46 47 128 73 19
6 38 11 42 11 14 0 6 -37 -18 -75 -34 -56 -95 -185 -95 -201 0 -9 34 0 113 28
94 34 137 43 219 48 11 0 -27 93 -39 97 -6 2 -13 -7 -17 -21 -5 -19 -18 -28
-58 -42 -29 -9 -58 -21 -65 -26 -17 -14 -35 0 -28 23 3 10 27 53 53 96 40 67
47 85 45 127 -2 65 -13 72 -46 31z"/>
<path d="M1320 2710 c-11 -11 -22 -31 -26 -45 -8 -34 22 -112 48 -126 28 -15
75 -4 115 27 27 21 33 32 33 64 0 50 -17 87 -44 94 -47 13 -106 6 -126 -14z"/>
<path d="M1165 2702 c-68 -14 -125 -76 -96 -105 6 -6 11 -19 11 -29 0 -36 36
-58 94 -58 47 0 57 4 75 26 25 32 28 99 6 131 -17 24 -61 41 -90 35z"/>
<path d="M7005 2656 c-21 -49 -19 -56 13 -56 37 0 144 -28 157 -41 15 -15 -12
-31 -96 -58 -150 -46 -154 -48 -168 -87 -15 -42 -11 -50 17 -33 17 11 27 10
59 -4 21 -9 69 -26 106 -38 66 -20 89 -35 114 -75 10 -17 12 -16 27 18 25 59
22 70 -18 63 -24 -5 -45 -1 -74 14 -23 12 -51 21 -62 21 -23 0 -38 26 -23 41
6 6 26 14 44 19 19 5 66 20 104 33 39 14 83 28 98 31 16 4 27 12 24 19 -5 16
-32 29 -151 74 -59 23 -111 50 -128 66 l-28 29 -15 -36z"/>
<path d="M5898 2624 c-14 -13 -9 -44 10 -58 35 -30 103 -83 172 -136 49 -37
78 -68 92 -97 33 -71 63 -93 123 -93 75 0 114 29 138 102 19 57 19 57 -2 101
-16 34 -33 51 -70 70 -44 22 -53 24 -100 14 -43 -8 -54 -7 -69 7 -10 9 -26 16
-36 16 -10 0 -52 16 -93 36 -74 36 -151 53 -165 38z"/>
<path d="M1630 2591 c-25 -9 -55 -22 -68 -29 -13 -7 -55 -26 -93 -42 -62 -25
-79 -28 -143 -23 l-72 6 -37 -39 c-35 -37 -37 -43 -37 -105 0 -52 4 -72 21
-93 26 -33 63 -52 116 -59 37 -4 48 -1 80 25 21 16 49 51 62 76 29 58 75 108
121 132 19 10 60 41 91 69 90 80 68 123 -41 82z"/>
<path d="M983 2520 c-12 -5 -26 -17 -31 -27 -9 -18 -10 -128 -1 -137 3 -3 22
-11 44 -18 49 -17 56 -36 17 -50 -38 -15 -50 -63 -30 -123 17 -53 55 -72 110
-55 22 6 41 10 43 8 2 -2 6 -25 9 -53 8 -79 65 -112 152 -89 23 6 44 42 44 73
0 36 29 33 47 -4 19 -40 59 -53 120 -38 31 7 40 15 50 43 7 21 10 55 7 84 -6
46 -5 48 15 41 33 -10 84 12 109 48 27 41 28 55 1 113 l-22 45 -60 -3 c-52 -3
-63 -7 -80 -31 -22 -29 -28 -85 -13 -126 7 -22 6 -23 -22 -16 -40 8 -98 -16
-107 -47 -15 -47 -25 -50 -58 -17 -30 30 -34 31 -94 26 l-63 -5 0 35 c0 47
-23 88 -60 103 -36 15 -39 37 -5 50 23 9 25 15 25 69 0 53 -3 63 -27 86 -29
26 -77 32 -120 15z"/>
<path d="M5973 2400 c-47 -21 -59 -47 -50 -106 7 -43 43 -94 66 -94 10 0 38 7
61 15 51 18 61 13 32 -18 -62 -67 -11 -167 86 -167 53 0 69 15 82 74 18 87
-13 126 -100 126 -34 0 -40 3 -40 21 0 11 5 29 11 41 20 38 -27 109 -81 121
-14 3 -44 -3 -67 -13z"/>
<path d="M603 2359 c-39 -11 -45 -39 -8 -39 27 0 65 -31 65 -53 0 -14 -125
-84 -202 -112 -39 -14 -51 -15 -63 -5 -24 20 -19 -13 11 -72 l26 -52 15 27
c10 20 38 39 91 63 42 19 91 42 108 51 18 8 40 13 50 11 16 -3 19 -11 16 -56
l-3 -53 33 14 c44 19 42 48 -11 136 -22 37 -44 81 -47 99 -5 27 -31 55 -46 51
-2 0 -18 -5 -35 -10z"/>
<path d="M6848 2292 c-13 -20 -27 -45 -31 -55 -9 -25 1 -41 17 -28 13 11 148
-38 199 -71 14 -10 33 -18 41 -18 8 0 19 -13 25 -30 5 -16 14 -30 19 -30 9 0
52 89 52 108 0 5 -11 7 -24 5 -16 -3 -55 11 -113 41 -49 25 -96 46 -104 46
-20 0 -39 20 -39 41 0 33 -17 29 -42 -9z"/>
<path d="M6763 2127 c-29 -42 -29 -65 1 -96 26 -28 96 -146 96 -163 0 -11 -52
-8 -181 10 -69 10 -76 8 -94 -28 -21 -40 -19 -50 10 -50 34 0 181 -86 226
-132 20 -21 39 -38 42 -38 3 0 14 16 26 35 l20 35 -24 0 c-37 0 -167 82 -148
93 5 3 52 0 105 -6 54 -6 101 -7 105 -3 9 9 -39 104 -78 153 -28 34 -37 63
-21 63 4 0 34 -15 66 -33 39 -22 65 -44 75 -65 9 -17 18 -31 21 -31 7 0 60 78
59 87 0 4 -33 23 -72 42 -107 52 -186 108 -193 136 -8 32 -15 30 -41 -9z"/>
<path d="M796 2045 c-4 -15 -22 -33 -48 -47 -59 -33 -68 -39 -131 -82 -33 -23
-62 -36 -71 -33 -11 4 -16 1 -16 -10 0 -19 38 -83 50 -83 4 0 26 18 48 40 69
69 89 44 47 -59 -25 -62 -26 -71 -14 -109 16 -54 35 -53 49 1 18 70 41 128 54
133 7 3 25 -2 40 -10 37 -19 65 -8 94 35 19 27 22 42 17 74 -6 37 -41 101 -84
153 -24 28 -27 28 -35 -3z m54 -106 c29 -52 -26 -107 -75 -75 -33 22 -32 36 7
68 40 33 54 35 68 7z"/>
<path d="M2895 1994 c-61 -22 -76 -43 -82 -111 -8 -90 11 -124 82 -151 31 -12
66 -22 77 -22 11 0 61 -20 112 -44 109 -53 212 -86 266 -86 31 0 40 -4 40 -17
0 -10 -83 -102 -184 -205 -219 -221 -228 -237 -182 -323 30 -59 49 -71 122
-79 l52 -6 103 97 c57 54 106 103 108 108 2 6 88 94 190 197 139 141 192 188
210 188 19 0 90 -65 303 -277 153 -153 290 -284 305 -292 41 -21 94 -18 136 8
49 30 69 78 61 143 -6 47 -13 54 -200 245 -107 108 -193 198 -191 200 3 2 29
8 58 13 75 12 221 64 286 100 32 18 77 34 113 39 81 11 112 43 125 132 11 71
-28 131 -97 149 -55 15 -103 -1 -177 -61 -84 -68 -208 -118 -310 -126 -104 -8
-226 28 -329 98 -76 51 -102 59 -122 34 -6 -8 -21 -17 -32 -21 -12 -3 -30 -16
-42 -29 -80 -85 -404 -101 -508 -25 -15 11 -32 20 -38 20 -5 0 -27 15 -47 34
-96 85 -132 98 -208 70z"/>
<path d="M910 1700 c-19 -10 -50 -34 -69 -53 -31 -33 -34 -41 -35 -104 -1 -86
21 -129 84 -160 139 -71 285 34 265 192 -9 72 -40 110 -108 130 -65 19 -94 18
-137 -5z m175 -62 c24 -19 27 -26 22 -65 -5 -48 -27 -77 -91 -124 -74 -55
-166 -31 -166 42 0 17 9 42 20 56 11 14 20 31 20 37 0 21 102 74 146 75 12 1
34 -9 49 -21z"/>
<path d="M6475 1688 c-63 -35 -97 -90 -97 -157 1 -83 33 -135 104 -172 49 -25
104 -24 158 4 62 31 83 65 88 140 4 59 2 64 -33 110 -56 73 -160 108 -220 75z
m120 -77 c102 -69 122 -172 39 -207 -59 -25 -126 7 -185 89 -33 46 -36 76 -12
113 31 48 92 50 158 5z"/>
<path d="M3780 1363 c-6 -21 -13 -63 -16 -93 -13 -149 -24 -195 -57 -240 -26
-37 -32 -54 -31 -97 0 -82 51 -123 155 -126 56 -2 62 0 89 32 26 29 30 42 30
93 0 48 -5 66 -26 93 -31 41 -44 84 -54 185 -8 70 -15 114 -26 168 -3 15 -12
22 -29 22 -19 0 -26 -7 -35 -37z"/>
<path d="M6194 1377 c-30 -14 -69 -46 -97 -78 -50 -57 -56 -69 -33 -69 16 0
206 -202 206 -219 0 -19 14 -12 73 40 97 86 123 169 79 255 -43 84 -138 113
-228 71z m151 -91 c53 -65 57 -85 30 -144 -41 -88 -50 -86 -152 23 -48 53 -89
102 -91 109 -3 15 42 52 72 57 11 2 39 2 63 0 37 -3 48 -9 78 -45z"/>
<path d="M1364 1251 c-23 -10 -54 -36 -70 -57 -26 -34 -29 -45 -29 -115 0 -72
2 -80 30 -110 17 -17 44 -38 62 -45 38 -16 83 -18 83 -4 0 6 -9 10 -20 10 -55
0 -100 61 -100 137 0 44 3 50 55 99 53 50 56 51 102 47 67 -7 86 -28 91 -103
2 -33 8 -60 11 -60 15 0 61 57 61 76 0 20 -89 113 -127 133 -33 17 -103 13
-149 -8z"/>
<path d="M3565 1239 c-11 -5 -31 -26 -44 -45 -23 -32 -23 -37 -10 -76 7 -23
22 -49 32 -59 21 -19 20 -20 -50 -34 -42 -8 -73 -48 -73 -92 0 -47 48 -93 95
-93 44 0 50 -12 20 -40 -20 -19 -25 -33 -25 -72 0 -44 3 -50 33 -68 44 -28
122 -27 137 0 18 35 41 25 38 -16 -2 -31 3 -41 32 -66 29 -24 42 -29 73 -25
47 6 87 32 87 55 0 30 26 58 41 45 27 -21 95 -22 128 -2 43 26 55 62 39 113
-16 49 -48 69 -101 62 -61 -7 -87 -30 -87 -76 0 -47 -11 -56 -35 -30 -25 27
-98 37 -130 16 -34 -22 -42 -20 -48 12 -9 46 -38 73 -85 79 -54 7 -62 21 -28
48 24 20 27 26 20 61 -3 21 -13 51 -20 66 -18 36 -19 35 22 41 58 10 74 31 74
97 0 46 -4 60 -22 77 -27 25 -85 36 -113 22z"/>
<path d="M3981 1236 c-39 -14 -60 -47 -61 -97 0 -27 8 -42 34 -68 30 -29 40
-33 70 -28 42 7 46 -5 11 -35 -20 -17 -25 -31 -25 -69 0 -42 4 -49 37 -74 49
-38 86 -37 126 4 26 26 32 39 32 76 0 55 -16 72 -78 84 -26 5 -50 11 -53 14
-3 3 6 16 20 30 25 25 31 45 27 92 -2 23 -69 85 -91 84 -8 0 -30 -6 -49 -13z"/>
<path d="M1688 1078 c20 -20 14 -38 -38 -108 -54 -72 -80 -126 -80 -162 0 -37
36 -86 79 -108 68 -34 120 -23 164 37 77 106 110 143 132 149 34 9 31 30 -7
54 -44 27 -48 25 -48 -13 0 -25 -15 -51 -67 -115 l-67 -83 -50 3 c-40 2 -53 8
-69 30 -13 17 -18 34 -14 50 8 31 99 156 138 190 l31 26 -42 31 c-43 31 -87
44 -62 19z"/>
<path d="M5702 999 c-72 -36 -112 -116 -93 -187 25 -93 101 -152 194 -152 106
0 180 112 143 218 -22 61 -50 97 -90 116 -58 28 -106 29 -154 5z m140 -90 c79
-90 80 -160 3 -197 l-46 -22 -54 51 c-58 55 -92 122 -81 163 8 32 63 67 100
64 21 -2 42 -18 78 -59z"/>
<path d="M2022 851 c1 -19 -14 -53 -40 -93 -23 -35 -50 -84 -62 -110 -14 -33
-27 -48 -40 -48 -36 0 -30 -19 12 -41 24 -12 62 -35 86 -51 23 -16 59 -36 79
-45 37 -15 37 -15 66 17 33 37 25 60 -13 40 -19 -10 -33 -9 -77 6 -30 10 -59
24 -64 30 -10 13 105 242 127 251 25 9 15 29 -25 51 -49 28 -50 28 -49 -7z"/>
<path d="M5373 799 c-121 -65 -130 -76 -93 -120 l19 -24 1 25 c0 36 27 70 55
70 20 0 31 -15 70 -97 26 -54 50 -117 52 -140 3 -24 10 -43 16 -43 12 0 97 49
97 56 0 2 -10 8 -23 13 -16 6 -39 41 -75 116 -50 102 -61 138 -44 149 4 2 27
0 52 -4 25 -5 46 -7 48 -5 9 9 -31 65 -46 65 -9 0 -68 -28 -129 -61z"/>
<path d="M2252 738 c-7 -7 -12 -22 -12 -35 0 -21 4 -23 46 -20 34 1 49 -2 57
-15 11 -17 11 -17 -42 -128 -11 -25 -21 -52 -21 -61 0 -10 -16 -31 -35 -48
-40 -35 -42 -41 -16 -41 11 0 36 -9 56 -21 37 -22 79 -19 57 3 -19 19 -14 44
29 154 44 111 64 130 99 99 11 -10 22 -26 25 -36 9 -27 18 -24 34 12 17 39 8
48 -69 77 -30 11 -80 32 -110 46 -61 29 -80 32 -98 14z"/>
<path d="M5153 699 c-24 -11 -43 -23 -43 -27 0 -4 13 -15 29 -24 49 -27 96
-148 59 -148 -7 0 -53 24 -103 54 -112 67 -123 70 -169 51 -37 -16 -41 -35 -6
-35 18 0 32 -14 36 -35 1 -5 18 -50 38 -100 20 -49 36 -105 36 -122 0 -37 6
-39 57 -18 38 16 38 21 1 39 -26 13 -81 137 -71 162 3 8 8 13 12 11 3 -1 26
-12 51 -24 25 -11 51 -28 59 -37 7 -9 21 -16 30 -16 9 0 34 -12 56 -25 22 -14
46 -25 53 -25 18 0 14 39 -9 90 -12 25 -32 78 -46 119 -20 60 -23 79 -14 93
11 18 7 39 -7 37 -4 0 -26 -9 -49 -20z"/>
<path d="M2586 590 c4 -34 -1 -65 -21 -125 -33 -99 -34 -136 -3 -181 24 -35
54 -49 134 -60 37 -6 44 -3 72 27 30 32 62 109 77 187 4 20 17 39 33 49 15 9
29 19 32 21 12 9 -37 32 -71 32 l-37 0 8 -35 c9 -38 -23 -160 -54 -207 -40
-61 -104 -54 -141 14 -19 35 -19 39 -3 65 9 15 22 56 28 90 9 42 21 71 38 88
l25 25 -36 15 c-20 8 -42 15 -50 15 -7 0 -18 5 -25 12 -10 10 -11 2 -6 -32z"/>
<path d="M4670 504 c-6 -14 -10 -46 -10 -71 0 -67 -21 -226 -31 -238 -5 -5 -9
-16 -9 -26 0 -14 5 -15 40 -6 44 12 48 18 25 37 -16 13 -20 48 -7 65 12 16 99
44 121 38 20 -5 45 -58 35 -74 -8 -14 43 -10 81 5 42 18 43 26 7 47 -16 9 -72
69 -126 133 -53 64 -101 116 -107 116 -5 0 -14 -12 -19 -26z m69 -127 c8 -21
8 -34 1 -41 -15 -15 -44 5 -48 33 -9 57 28 63 47 8z"/>
<path d="M2964 469 c9 -33 7 -55 -13 -132 -13 -51 -31 -107 -42 -125 -18 -31
-18 -33 -1 -38 9 -3 27 -10 40 -15 43 -17 85 -4 52 16 -16 10 -12 82 7 100 15
15 19 12 55 -54 22 -39 51 -80 65 -91 45 -35 83 -20 49 19 -7 9 -25 42 -39 73
-24 53 -24 57 -8 72 10 9 24 16 32 16 20 0 35 28 37 71 3 53 -44 92 -137 113
-108 25 -110 24 -97 -25z m144 -31 c13 -13 16 -57 4 -74 -12 -18 -52 -36 -68
-30 -17 6 -18 41 -3 85 12 33 44 42 67 19z"/>
<path d="M4278 431 c-25 -28 -29 -40 -25 -68 8 -47 19 -58 96 -94 80 -38 101
-55 101 -85 0 -27 -26 -44 -68 -44 -21 0 -41 11 -67 38 l-37 37 5 -38 c3 -22
11 -45 18 -53 13 -16 65 -19 74 -4 4 7 12 7 25 0 28 -15 34 -13 73 25 54 52
52 92 -7 139 -23 20 -51 36 -60 36 -50 0 -97 56 -82 96 8 21 59 12 98 -16 33
-24 40 -15 27 33 l-10 36 -65 -2 c-62 -2 -68 -4 -96 -36z"/>
<path d="M3406 297 c-36 -73 -77 -144 -91 -157 -32 -30 -32 -36 5 -43 40 -9
64 1 49 19 -15 18 -3 51 24 66 31 17 42 18 82 7 39 -11 58 -39 57 -81 -1 -27
1 -28 54 -28 50 0 68 10 44 25 -16 10 -50 82 -42 89 3 4 2 10 -4 14 -5 4 -23
41 -39 82 -15 41 -34 90 -41 108 -7 17 -17 32 -23 32 -6 0 -39 -60 -75 -133z
m74 -6 c5 -11 10 -29 10 -40 0 -17 -6 -21 -36 -21 -34 0 -36 1 -29 27 13 52
37 67 55 34z"/>
<path d="M3758 412 c-32 -2 -58 -5 -58 -7 0 -3 7 -13 15 -23 24 -27 32 -230
11 -271 -9 -16 -16 -32 -16 -36 0 -7 196 -6 242 1 33 6 37 10 43 46 9 53 0 58
-33 20 -20 -23 -38 -33 -72 -37 -74 -10 -81 1 -87 139 -3 102 -2 121 13 137
24 27 9 35 -58 31z"/>
</g>
</svg>
